<svg viewBox="55.8293 45.0873 137.1004 172.0255" width="137.1004" height="172.0255" xmlns="http://www.w3.org/2000/svg">
  <g transform="matrix(0.10000000149011612, 0, 0, -0.10000000149011612, 0, 250)" fill="#FFF" stroke="none">
    <path d="M 1061 2034 C 1000 2018 908 1973 846 1930 C 786 1889 689 1784 648 1715 C 563 1574 532 1384 583 1309 C 616 1260 662 1233 772 1199 C 843 1177 870 1164 870 1152 C 870 1144 846 1062 816 971 C 780.818 863.855 761.28 791.944 750.84 731.943 C 741.696 679.384 739.264 635.962 743 586 C 750 501 778 395 805 354 C 823 326 860.41 321 869.41 346 C 872.41 355 867 404 850 456 C 834 507 826.299 563.894 824.354 585.183 C 822.629 604.068 820.72 629.756 824.531 663.527 C 832.021 729.896 852.932 827.483 898 966 C 954 1140 956 1145 984 1148 C 1032 1154 1080 1141 1080 1123 C 1080 1114 1060 1046 1036 971 C 975 785 956 685 963 586 C 971 458 1021 339 1069 332 C 1103 327 1105 355 1074 438 C 1049 507 1044.639 529.932 1044.639 636.932 L 1047.654 669.792 L 1051.356 698.787 L 1061.372 752.705 L 1077.806 817.304 L 1111.945 945.648 C 1111.945 945.648 1157.64 1123.035 1180.912 1133.313 C 1194.468 1139.3 1210.506 1138.391 1225.974 1137.597 C 1256.499 1136.031 1284.803 1128.141 1287.431 1127.171 C 1307.636 1119.714 1290.526 1081.337 1282.799 1052.945 C 1269.349 1003.519 1252 953 1252 953 L 1201.886 780.41 L 1192.912 744.166 L 1186.475 709.038 L 1180.083 644.181 C 1180.083 525.181 1199 474 1213 433 C 1235 369 1265 330 1291 330 C 1323 330 1324 358 1295 444 C 1253 568 1252 650 1288 790 C 1305 853 1336 954 1357 1015 C 1400 1137 1412 1150 1488 1150 C 1541 1150 1541 1144 1494 1014 C 1393 733 1383 548 1460 373 C 1475 338 1490.159 328.872 1511.159 328.872 C 1525.159 328.872 1528.41 339.295 1532.41 348.295 C 1535.41 356.295 1530 402 1515 451 C 1462 624 1467 669 1575 1005 L 1629 1176 L 1698 1194 C 1787 1217 1879 1268 1908 1310 C 1951 1374 1927 1538 1853 1689 C 1798 1801 1674 1923 1560 1978 C 1513 2001 1448 2027 1415 2035 C 1338 2054 1135 2054 1061 2034 Z M 1221 1490 C 1294 1470 1330 1401 1330 1282 C 1330 1197 1319 1178 1280 1191 C 1240 1206 1202 1253 1195 1298 C 1192 1318 1181 1368 1170 1409 C 1145 1505 1148 1510 1221 1490 Z M 1491 1457 C 1526 1437 1551 1373 1557 1294 L 1563 1220 L 1517 1220 C 1457 1220 1428 1253 1411 1341 C 1404 1376 1392 1420 1384 1439 C 1373 1464 1373 1475 1381 1480 C 1394 1489 1463 1475 1491 1457 Z M 1065 1440 C 1094 1413 1110 1350 1110 1267 C 1110 1191 1101 1184 1042 1210 C 994 1232 988 1243 960 1364 C 944 1435 942 1455 952 1462 C 973 1476 1040 1463 1065 1440 Z M 1696 1408 C 1755 1369 1765 1332 1729 1294 C 1705 1268 1666 1262 1653 1283 C 1641 1301 1612 1429 1618 1435 C 1629 1446 1650 1439 1696 1408 Z M 864 1379 C 886 1359 900 1247 882 1236 C 866 1227 747 1293 739 1316 C 724 1360 780 1417 825 1404 C 836 1401 854 1390 864 1379 Z"/>
  </g>
</svg>