<svg xmlns="http://www.w3.org/2000/svg" xmlns:xlink="http://www.w3.org/1999/xlink" width="500" zoomAndPan="magnify" viewBox="0 0 375 374.999991" height="500" preserveAspectRatio="xMidYMid meet" version="1.0"><defs><filter x="0%" y="0%" width="100%" height="100%" id="b355003537"><feColorMatrix values="0 0 0 0 1 0 0 0 0 1 0 0 0 0 1 0 0 0 1 0" color-interpolation-filters="sRGB"/></filter><clipPath id="af992fdb72"><path d="M 152 275.597656 L 155.203125 275.597656 L 155.203125 298.675781 L 152 298.675781 Z M 152 275.597656 " clip-rule="nonzero"/></clipPath><clipPath id="6827746bda"><path d="M 155.175781 276.375 C 153.898438 298.425781 153.601562 298.648438 153.375 298.648438 C 153.074219 298.648438 152.625 298.050781 152.625 297.824219 C 152.625 297.601562 153.226562 297.148438 153.523438 297.148438 C 153.75 297.226562 154.125 297.824219 154.125 298.050781 C 154.050781 298.273438 153.675781 298.648438 153.449219 298.648438 C 153.148438 298.648438 152.851562 298.425781 152.625 297.898438 C 151.726562 295.648438 152.550781 278.550781 153.675781 276.375 C 153.898438 275.851562 154.199219 275.625 154.5 275.625 C 154.726562 275.625 155.175781 276.375 155.175781 276.375 " clip-rule="nonzero"/></clipPath><mask id="39fcf95bf6"><g filter="url(#b355003537)"><rect x="-37.5" width="450" fill="#000000" y="-37.499999" height="449.999989" fill-opacity="0.2"/></g></mask><clipPath id="326e8b12b8"><path d="M 0.40625 0.613281 L 280.839844 0.613281 L 280.839844 352.363281 L 0.40625 352.363281 Z M 0.40625 0.613281 " clip-rule="nonzero"/></clipPath><clipPath id="fb426273ac"><rect x="0" width="281" y="0" height="353"/></clipPath></defs><g clip-path="url(#af992fdb72)"><g clip-path="url(#6827746bda)"><path fill="#ffffff" d="M 149.625 272.625 L 158.175781 272.625 L 158.175781 301.714844 L 149.625 301.714844 Z M 149.625 272.625 " fill-opacity="1" fill-rule="nonzero"/></g></g><g mask="url(#39fcf95bf6)"><g transform="matrix(1, 0, 0, 1, 47, 11)"><g clip-path="url(#fb426273ac)"><g clip-path="url(#326e8b12b8)"><path fill="#c83c60" d="M 103.140625 3.808594 C 90.675781 7.078125 71.875 16.273438 59.203125 25.0625 C 46.941406 33.441406 27.117188 54.898438 18.738281 69 C 1.367188 97.816406 -4.96875 136.644531 5.457031 151.972656 C 12.199219 161.988281 21.601562 167.503906 44.078125 174.453125 C 58.589844 178.949219 64.109375 181.605469 64.109375 184.058594 C 64.109375 185.691406 59.203125 202.449219 53.070312 221.046875 C 45.882812 242.945312 41.890625 257.640625 39.753906 269.902344 C 37.886719 280.644531 37.390625 289.519531 38.152344 299.726562 C 39.585938 317.097656 45.304688 338.761719 50.824219 347.140625 C 54.503906 352.863281 62.148438 353.886719 63.988281 348.777344 C 64.601562 346.9375 63.496094 336.921875 60.019531 326.296875 C 56.75 315.875 55.175781 304.246094 54.78125 299.894531 C 54.425781 296.035156 54.035156 290.785156 54.816406 283.882812 C 56.347656 270.320312 60.621094 250.378906 69.828125 222.070312 C 81.273438 186.511719 81.683594 185.488281 87.40625 184.875 C 97.214844 183.648438 107.023438 186.304688 107.023438 189.984375 C 107.023438 191.824219 102.9375 205.71875 98.03125 221.046875 C 85.566406 259.058594 81.683594 279.496094 83.113281 299.726562 C 84.75 325.886719 94.964844 350.207031 104.777344 351.636719 C 111.726562 352.660156 112.132812 346.9375 105.796875 329.972656 C 100.6875 315.875 99.796875 311.1875 99.796875 289.320312 L 100.414062 282.605469 L 101.171875 276.679688 L 103.21875 265.660156 L 106.574219 252.457031 L 113.550781 226.230469 C 113.550781 226.230469 122.890625 189.976562 127.648438 187.878906 C 130.417969 186.652344 133.695312 186.839844 136.855469 187 C 143.09375 187.320312 148.878906 188.933594 149.414062 189.132812 C 153.542969 190.65625 150.046875 198.5 148.46875 204.300781 C 145.71875 214.402344 142.175781 224.726562 142.175781 224.726562 L 131.933594 259.996094 L 130.097656 267.40625 L 128.785156 274.582031 L 127.476562 287.839844 C 127.476562 312.15625 131.34375 322.617188 134.203125 330.996094 C 138.699219 344.074219 144.832031 352.046875 150.144531 352.046875 C 156.683594 352.046875 156.890625 346.324219 150.960938 328.746094 C 142.378906 303.40625 142.175781 286.648438 149.53125 258.039062 C 153.007812 245.164062 159.339844 224.523438 163.632812 212.054688 C 172.421875 187.125 174.875 184.464844 190.40625 184.464844 C 201.234375 184.464844 201.234375 185.691406 191.632812 212.261719 C 170.992188 269.6875 168.945312 307.492188 184.683594 343.257812 C 187.75 350.410156 190.847656 352.277344 195.136719 352.277344 C 198 352.277344 198.664062 350.144531 199.480469 348.308594 C 200.09375 346.671875 198.988281 337.332031 195.921875 327.316406 C 185.089844 291.960938 186.113281 282.765625 208.183594 214.101562 L 219.21875 179.152344 L 233.320312 175.476562 C 251.511719 170.773438 270.3125 160.351562 276.238281 151.769531 C 285.027344 138.6875 280.121094 105.171875 264.996094 74.3125 C 253.757812 51.425781 228.417969 26.492188 205.117188 15.253906 C 195.515625 10.550781 182.230469 5.238281 175.484375 3.605469 C 159.75 -0.277344 118.265625 -0.277344 103.140625 3.808594 Z M 135.839844 114.984375 C 150.757812 119.070312 158.117188 133.171875 158.117188 157.492188 C 158.117188 174.863281 155.867188 178.746094 147.898438 176.085938 C 139.722656 173.023438 131.957031 163.417969 130.527344 154.222656 C 129.914062 150.132812 127.664062 139.914062 125.417969 131.535156 C 120.308594 111.917969 120.921875 110.894531 135.839844 114.984375 Z M 191.019531 121.726562 C 198.171875 125.8125 203.28125 138.894531 204.507812 155.039062 L 205.730469 170.160156 L 196.332031 170.160156 C 184.070312 170.160156 178.144531 163.417969 174.667969 145.433594 C 173.238281 138.28125 170.785156 129.289062 169.152344 125.40625 C 166.902344 120.296875 166.902344 118.046875 168.539062 117.027344 C 171.195312 115.1875 185.296875 118.046875 191.019531 121.726562 Z M 103.957031 125.199219 C 109.886719 130.71875 113.15625 143.59375 113.15625 160.554688 C 113.15625 176.085938 111.316406 177.519531 99.257812 172.203125 C 89.449219 167.707031 88.222656 165.460938 82.5 140.734375 C 79.230469 126.222656 78.820312 122.136719 80.867188 120.707031 C 85.15625 117.84375 98.851562 120.5 103.957031 125.199219 Z M 232.914062 131.742188 C 244.96875 139.710938 247.015625 147.273438 239.65625 155.039062 C 234.753906 160.351562 226.78125 161.578125 224.125 157.285156 C 221.671875 153.609375 215.746094 127.449219 216.972656 126.222656 C 219.21875 123.976562 223.511719 125.40625 232.914062 131.742188 Z M 62.882812 137.667969 C 67.378906 141.753906 70.238281 164.644531 66.558594 166.890625 C 63.289062 168.730469 38.972656 155.242188 37.335938 150.542969 C 34.269531 141.550781 45.714844 129.902344 54.910156 132.558594 C 57.160156 133.171875 60.835938 135.417969 62.882812 137.667969 Z M 62.882812 137.667969 " fill-opacity="1" fill-rule="nonzero"/></g></g></g></g></svg>